%FSLAX46Y46*%
G04 Gerber Fmt 4.6, Leading zero omitted, Abs format (unit mm)*
G04 Created by KiCad (PCBNEW (2014-07-08 BZR 4987)-product) date Sun 20 Jul 2014 10:52:27 PM CEST*
%MOMM*%
G01*
G04 APERTURE LIST*
%ADD10C,0.100000*%
%ADD11C,0.800000*%
%ADD12R,0.398780X0.599440*%
%ADD13R,0.599440X0.398780*%
%ADD14R,1.143000X0.635000*%
%ADD15R,2.032000X3.657600*%
%ADD16R,2.032000X1.016000*%
%ADD17R,7.000000X7.000000*%
%ADD18R,1.500000X2.500000*%
%ADD19R,1.270000X2.540000*%
%ADD20R,0.635000X1.143000*%
%ADD21R,0.250000X1.550000*%
%ADD22R,2.500000X1.550000*%
%ADD23R,2.050000X2.500000*%
%ADD24R,1.300000X1.550000*%
%ADD25C,4.500000*%
G04 APERTURE END LIST*
D10*
D11*
X137795000Y-112395000D03*
X136525000Y-112395000D03*
X135255000Y-112395000D03*
X133985000Y-112395000D03*
X132715000Y-112395000D03*
X131445000Y-112395000D03*
X130175000Y-112395000D03*
X128905000Y-112395000D03*
X127635000Y-112395000D03*
X126365000Y-112395000D03*
X125095000Y-112395000D03*
X123825000Y-112395000D03*
X123825000Y-111125000D03*
X136525000Y-111125000D03*
X135255000Y-111125000D03*
X133985000Y-111125000D03*
X132715000Y-111125000D03*
X131445000Y-111125000D03*
X130175000Y-111125000D03*
X127635000Y-111125000D03*
X128905000Y-111125000D03*
X126365000Y-111125000D03*
X125095000Y-111125000D03*
X137795000Y-113665000D03*
X136525000Y-113665000D03*
X135255000Y-113665000D03*
X133985000Y-113665000D03*
X132715000Y-113665000D03*
X130175000Y-113665000D03*
X131445000Y-113665000D03*
X128905000Y-113665000D03*
X127635000Y-113665000D03*
X126365000Y-113665000D03*
X125095000Y-113665000D03*
X123825000Y-113665000D03*
X137795000Y-114935000D03*
X136525000Y-114935000D03*
X135255000Y-114935000D03*
X133985000Y-114935000D03*
X132715000Y-114935000D03*
X131445000Y-114935000D03*
X130175000Y-114935000D03*
X128905000Y-114935000D03*
X127635000Y-114935000D03*
X126365000Y-114935000D03*
X125095000Y-114935000D03*
X123825000Y-114935000D03*
X137795000Y-116205000D03*
X136525000Y-116205000D03*
X135255000Y-116205000D03*
X133985000Y-116205000D03*
X131445000Y-116205000D03*
X132715000Y-116205000D03*
X130175000Y-116205000D03*
X128905000Y-116205000D03*
X127635000Y-116205000D03*
X126365000Y-116205000D03*
X125095000Y-116205000D03*
X123825000Y-116205000D03*
X137795000Y-117475000D03*
X136525000Y-117475000D03*
X132715000Y-117475000D03*
X135255000Y-117475000D03*
X133985000Y-117475000D03*
X131445000Y-117475000D03*
X130175000Y-117475000D03*
X128905000Y-117475000D03*
X127635000Y-117475000D03*
X126365000Y-117475000D03*
X125095000Y-117475000D03*
X123825000Y-117475000D03*
X137795000Y-118745000D03*
X136525000Y-118745000D03*
X135255000Y-118745000D03*
X133985000Y-118745000D03*
X132715000Y-118745000D03*
X131445000Y-118745000D03*
X130175000Y-118745000D03*
X128905000Y-118745000D03*
X127635000Y-118745000D03*
X125095000Y-118745000D03*
X126365000Y-118745000D03*
X123825000Y-118745000D03*
X137795000Y-120015000D03*
X136525000Y-120015000D03*
X135255000Y-120015000D03*
X133985000Y-120015000D03*
X132715000Y-120015000D03*
X131445000Y-120015000D03*
X130175000Y-120015000D03*
X128905000Y-120015000D03*
X127635000Y-120015000D03*
X126365000Y-120015000D03*
X125095000Y-120015000D03*
X123825000Y-120015000D03*
D12*
X121089420Y-116967000D03*
X121988580Y-116967000D03*
X121089420Y-114173000D03*
X121988580Y-114173000D03*
D13*
X131826000Y-121988580D03*
X131826000Y-121089420D03*
X137414000Y-121988580D03*
X137414000Y-121089420D03*
D12*
X121089420Y-119253000D03*
X121988580Y-119253000D03*
D13*
X126873000Y-121988580D03*
X126873000Y-121089420D03*
X126873000Y-123121420D03*
X126873000Y-124020580D03*
X133604000Y-121089420D03*
X133604000Y-121988580D03*
X132715000Y-121089420D03*
X132715000Y-121988580D03*
D12*
X121089420Y-112649000D03*
X121988580Y-112649000D03*
D13*
X127635000Y-123121420D03*
X127635000Y-124020580D03*
D12*
X121089420Y-116205000D03*
X121988580Y-116205000D03*
D13*
X129159000Y-123121420D03*
X129159000Y-124020580D03*
X131826000Y-123121420D03*
X131826000Y-124020580D03*
X124587000Y-121988580D03*
X124587000Y-121089420D03*
X127635000Y-121988580D03*
X127635000Y-121089420D03*
X125349000Y-121988580D03*
X125349000Y-121089420D03*
D12*
X121089420Y-114935000D03*
X121988580Y-114935000D03*
D13*
X123825000Y-121988580D03*
X123825000Y-121089420D03*
X131064000Y-123121420D03*
X131064000Y-124020580D03*
X128397000Y-121988580D03*
X128397000Y-121089420D03*
X128397000Y-123121420D03*
X128397000Y-124020580D03*
X129159000Y-121988580D03*
X129159000Y-121089420D03*
X126111000Y-121988580D03*
X126111000Y-121089420D03*
D14*
X139192000Y-112268000D03*
X139192000Y-113792000D03*
D15*
X156862000Y-115820000D03*
D16*
X150258000Y-115820000D03*
X150258000Y-113534000D03*
X150258000Y-118106000D03*
D15*
X156862000Y-123820000D03*
D16*
X150258000Y-123820000D03*
X150258000Y-121534000D03*
X150258000Y-126106000D03*
D17*
X154060000Y-108070000D03*
D18*
X156360000Y-101170000D03*
X151760000Y-101170000D03*
D12*
X140276580Y-115697000D03*
X139377420Y-115697000D03*
X121089420Y-117729000D03*
X121988580Y-117729000D03*
X121089420Y-113411000D03*
X121988580Y-113411000D03*
X129110420Y-110070000D03*
X130009580Y-110070000D03*
D13*
X131064000Y-121988580D03*
X131064000Y-121089420D03*
D12*
X121089420Y-118491000D03*
X121988580Y-118491000D03*
D19*
X116205000Y-117729000D03*
X119253000Y-117729000D03*
X116205000Y-121285000D03*
X119253000Y-121285000D03*
X116205000Y-114173000D03*
X119253000Y-114173000D03*
X149098000Y-110109000D03*
X146050000Y-110109000D03*
D20*
X148072000Y-118070000D03*
X146548000Y-118070000D03*
X148844000Y-107569000D03*
X147320000Y-107569000D03*
X148082000Y-115062000D03*
X146558000Y-115062000D03*
D12*
X140276580Y-116459000D03*
X139377420Y-116459000D03*
X132259580Y-110070000D03*
X131360420Y-110070000D03*
D21*
X120810000Y-100145000D03*
X121310000Y-100145000D03*
X121810000Y-100145000D03*
X122310000Y-100145000D03*
X122810000Y-100145000D03*
X123310000Y-100145000D03*
X123810000Y-100145000D03*
X124310000Y-100145000D03*
X124810000Y-100145000D03*
X125310000Y-100145000D03*
X125810000Y-100145000D03*
X126310000Y-100145000D03*
X126810000Y-100145000D03*
X127310000Y-100145000D03*
X127810000Y-100145000D03*
X128310000Y-100145000D03*
X128810000Y-100145000D03*
X129310000Y-100145000D03*
X129810000Y-100145000D03*
X130310000Y-100145000D03*
X130810000Y-100145000D03*
X131310000Y-100145000D03*
X131810000Y-100145000D03*
X132310000Y-100145000D03*
X132810000Y-100145000D03*
X133310000Y-100145000D03*
X133810000Y-100145000D03*
X134310000Y-100145000D03*
X134810000Y-100145000D03*
X135310000Y-100145000D03*
X135810000Y-100145000D03*
X136310000Y-100145000D03*
X136810000Y-100145000D03*
X137310000Y-100145000D03*
X137810000Y-100145000D03*
X138310000Y-100145000D03*
X138810000Y-100145000D03*
X139310000Y-100145000D03*
X139810000Y-100145000D03*
X140310000Y-100145000D03*
X140810000Y-100145000D03*
X141310000Y-100145000D03*
X141810000Y-100145000D03*
X142310000Y-100145000D03*
X142810000Y-100145000D03*
X143310000Y-100145000D03*
X143810000Y-100145000D03*
X144310000Y-100145000D03*
X144810000Y-100145000D03*
X145310000Y-100145000D03*
X145810000Y-100145000D03*
D22*
X117810000Y-100145000D03*
X148810000Y-100145000D03*
D23*
X114910000Y-97070000D03*
X151710000Y-97070000D03*
D24*
X120810000Y-95070000D03*
X125810000Y-95070000D03*
X130810000Y-95070000D03*
X135810000Y-95070000D03*
X140810000Y-95070000D03*
X145810000Y-95070000D03*
D20*
X148082000Y-113538000D03*
X146558000Y-113538000D03*
X148072000Y-121820000D03*
X146548000Y-121820000D03*
X148072000Y-123820000D03*
X146548000Y-123820000D03*
D13*
X138176000Y-121988580D03*
X138176000Y-121089420D03*
D25*
X110810000Y-130570000D03*
X110810000Y-95570000D03*
X155810000Y-95570000D03*
X155810000Y-130570000D03*
X142810000Y-128078000D03*
X118810000Y-104078000D03*
X118810000Y-128078000D03*
M02*
