M48
;DRILL file {kicad (2014-07-08 BZR 4987)-product} date Sun 20 Jul 2014 10:18:27 PM CEST
;FORMAT={-:-/ absolute / metric / decimal}
FMAT,2
METRIC,TZ
T1C0.250
T2C0.400
T3C2.700
%
G90
G05
M71
T1
X110.49Y-99.568
X110.49Y-102.108
X110.49Y-104.648
X110.49Y-107.188
X110.49Y-109.728
X110.49Y-112.268
X110.49Y-114.808
X110.49Y-117.348
X110.49Y-119.888
X110.49Y-122.428
X110.49Y-124.968
X113.03Y-124.968
X115.57Y-124.968
X115.57Y-127.508
X115.57Y-130.048
X115.697Y-111.125
X116.967Y-109.855
X118.11Y-97.028
X118.237Y-108.585
X118.237Y-113.157
X118.237Y-114.173
X118.237Y-115.189
X118.237Y-116.713
X118.237Y-117.729
X118.237Y-118.745
X118.237Y-120.269
X118.237Y-121.285
X118.237Y-122.301
X119.507Y-107.315
X120.269Y-113.157
X120.269Y-114.173
X120.269Y-115.189
X120.269Y-116.713
X120.269Y-117.729
X120.269Y-118.745
X120.269Y-120.269
X120.269Y-121.285
X120.269Y-122.301
X120.523Y-115.951
X120.65Y-97.028
X120.65Y-130.048
X120.777Y-106.045
X120.777Y-111.125
X120.81Y-101.57
X121.31Y-101.57
X121.666Y-113.411
X121.666Y-114.173
X121.666Y-116.967
X121.666Y-117.729
X121.666Y-118.491
X121.666Y-119.253
X121.81Y-101.57
X121.92Y-121.158
X121.92Y-122.428
X122.047Y-104.775
X122.047Y-109.855
X122.301Y-113.411
X122.301Y-114.173
X122.301Y-116.967
X122.301Y-117.729
X122.301Y-118.491
X122.301Y-119.253
X122.31Y-101.57
X122.81Y-101.57
X123.19Y-97.028
X123.19Y-122.428
X123.19Y-123.698
X123.19Y-130.048
X123.31Y-101.57
X123.317Y-108.585
X123.81Y-101.57
X123.825Y-121.412
X124.31Y-101.57
X124.46Y-123.698
X124.587Y-107.315
X124.81Y-101.57
X125.31Y-101.57
X125.73Y-97.028
X125.73Y-123.698
X125.73Y-130.048
X125.81Y-101.57
X126.31Y-101.57
X126.81Y-101.57
X126.873Y-123.698
X127.102Y-120.701
X127.254Y-122.555
X127.31Y-101.57
X127.381Y-109.22
X127.635Y-123.698
X127.81Y-101.57
X127.889Y-109.347
X128.27Y-97.028
X128.27Y-130.048
X128.31Y-101.57
X128.397Y-123.698
X128.524Y-120.65
X128.81Y-101.57
X129.159Y-123.698
X129.31Y-101.57
X129.81Y-101.57
X129.921Y-109.22
X130.048Y-123.698
X130.31Y-101.57
X130.429Y-109.347
X130.429Y-121.539
X130.81Y-97.028
X130.81Y-101.57
X130.81Y-110.236
X130.81Y-130.048
X131.064Y-121.412
X131.064Y-123.698
X131.191Y-109.347
X131.31Y-101.57
X131.699Y-109.22
X131.81Y-101.57
X131.826Y-121.412
X131.826Y-123.698
X132.31Y-101.57
X132.715Y-121.666
X132.81Y-101.57
X133.31Y-101.57
X133.35Y-97.028
X133.35Y-123.698
X133.35Y-130.048
X133.604Y-121.666
X133.731Y-109.347
X133.81Y-101.57
X134.239Y-109.22
X134.31Y-101.57
X134.366Y-121.539
X134.62Y-123.698
X134.81Y-101.57
X135.31Y-101.57
X135.81Y-101.57
X135.89Y-97.028
X135.89Y-130.048
X136.31Y-101.57
X136.525Y-122.809
X136.81Y-101.57
X137.16Y-122.809
X137.31Y-101.57
X137.81Y-101.57
X138.31Y-101.57
X138.357Y-111.575
X138.43Y-97.028
X138.43Y-130.048
X138.81Y-101.57
X138.938Y-115.697
X138.938Y-116.459
X139.06Y-112.903
X139.065Y-114.935
X139.31Y-96.07
X139.31Y-101.57
X139.446Y-113.157
X139.81Y-101.57
X140.31Y-101.57
X140.81Y-96.07
X140.81Y-101.57
X140.97Y-130.048
X141.31Y-101.57
X141.81Y-101.57
X142.31Y-96.07
X142.31Y-101.57
X142.367Y-107.315
X142.367Y-109.855
X142.81Y-101.57
X143.31Y-101.57
X143.81Y-96.078
X143.81Y-101.57
X144.31Y-99.07
X144.31Y-101.57
X144.78Y-97.028
X144.78Y-119.888
X144.78Y-122.428
X144.81Y-99.07
X144.81Y-101.57
X144.907Y-103.505
X144.907Y-107.315
X144.907Y-109.855
X144.907Y-112.395
X144.907Y-114.935
X146.05Y-124.968
X146.05Y-127.508
X146.05Y-130.048
X147.32Y-97.028
X147.32Y-104.394
X147.574Y-128.397
X148.082Y-120.904
X148.082Y-122.809
X148.209Y-107.442
X148.209Y-107.95
X148.209Y-108.458
X148.717Y-106.807
X148.81Y-103.328
X148.844Y-120.904
X148.844Y-122.809
X149.098Y-114.681
X149.352Y-106.807
X149.606Y-122.809
X149.733Y-114.681
X149.733Y-128.397
X149.86Y-97.028
X149.987Y-106.807
X150.114Y-109.093
X150.114Y-109.728
X150.368Y-114.681
X150.368Y-122.809
X151.003Y-114.681
X151.13Y-122.809
X151.511Y-102.87
X151.638Y-114.681
X151.638Y-121.158
X151.638Y-121.539
X151.638Y-121.92
X151.765Y-128.397
X151.892Y-122.809
X152.273Y-114.681
X153.543Y-101.346
X153.543Y-101.854
X153.543Y-102.362
X153.543Y-102.87
X154.051Y-99.822
X154.051Y-100.33
X154.432Y-114.681
X154.432Y-116.967
X154.559Y-101.346
X154.559Y-101.854
X154.559Y-102.362
X154.559Y-102.87
X154.559Y-122.682
X154.559Y-124.968
X155.194Y-99.822
X155.194Y-100.33
X155.194Y-122.682
X155.194Y-124.968
X155.321Y-114.681
X155.321Y-116.967
X156.972Y-114.681
X156.972Y-116.967
X157.734Y-114.681
X157.734Y-116.967
T2
X123.825Y-111.125
X123.825Y-112.395
X123.825Y-113.665
X123.825Y-114.935
X123.825Y-116.205
X123.825Y-117.475
X123.825Y-118.745
X123.825Y-120.015
X125.095Y-111.125
X125.095Y-112.395
X125.095Y-113.665
X125.095Y-114.935
X125.095Y-116.205
X125.095Y-117.475
X125.095Y-118.745
X125.095Y-120.015
X126.365Y-111.125
X126.365Y-112.395
X126.365Y-113.665
X126.365Y-114.935
X126.365Y-116.205
X126.365Y-117.475
X126.365Y-118.745
X126.365Y-120.015
X127.635Y-111.125
X127.635Y-112.395
X127.635Y-113.665
X127.635Y-114.935
X127.635Y-116.205
X127.635Y-117.475
X127.635Y-118.745
X127.635Y-120.015
X128.905Y-111.125
X128.905Y-112.395
X128.905Y-113.665
X128.905Y-114.935
X128.905Y-116.205
X128.905Y-117.475
X128.905Y-118.745
X128.905Y-120.015
X130.175Y-111.125
X130.175Y-112.395
X130.175Y-113.665
X130.175Y-114.935
X130.175Y-116.205
X130.175Y-117.475
X130.175Y-118.745
X130.175Y-120.015
X131.445Y-111.125
X131.445Y-112.395
X131.445Y-113.665
X131.445Y-114.935
X131.445Y-116.205
X131.445Y-117.475
X131.445Y-118.745
X131.445Y-120.015
X132.715Y-111.125
X132.715Y-112.395
X132.715Y-113.665
X132.715Y-114.935
X132.715Y-116.205
X132.715Y-117.475
X132.715Y-118.745
X132.715Y-120.015
X133.985Y-111.125
X133.985Y-112.395
X133.985Y-113.665
X133.985Y-114.935
X133.985Y-116.205
X133.985Y-117.475
X133.985Y-118.745
X133.985Y-120.015
X135.255Y-111.125
X135.255Y-112.395
X135.255Y-113.665
X135.255Y-114.935
X135.255Y-116.205
X135.255Y-117.475
X135.255Y-118.745
X135.255Y-120.015
X136.525Y-111.125
X136.525Y-112.395
X136.525Y-113.665
X136.525Y-114.935
X136.525Y-116.205
X136.525Y-117.475
X136.525Y-118.745
X136.525Y-120.015
X137.795Y-112.395
X137.795Y-113.665
X137.795Y-114.935
X137.795Y-116.205
X137.795Y-117.475
X137.795Y-118.745
X137.795Y-120.015
T3
X110.81Y-95.57
X110.81Y-130.57
X118.81Y-104.078
X118.81Y-128.078
X142.81Y-128.078
X155.81Y-95.57
X155.81Y-130.57
T0
M30
